<svg width="36" height="36" viewBox="0 0 36 36" fill="none" xmlns="http://www.w3.org/2000/svg">
<path d="M3.1862 31.5611C3.31034 31.7367 3.47171 31.8621 3.67033 31.9373C3.89378 31.9875 4.09239 32.0125 4.26618 32.0125L8.92126 31.2978L11.3047 35.3981C11.4288 35.5737 11.5778 35.7241 11.7516 35.8495C11.9253 35.9498 12.1364 36 12.3846 36C12.3846 36 12.4219 36 12.4964 36C12.7198 36 12.9184 35.9373 13.0922 35.8119C13.2908 35.6865 13.4522 35.511 13.5763 35.2853L17.7473 26.3699C17.797 26.3699 17.8342 26.3699 17.859 26.3699C17.8838 26.3699 17.9211 26.3699 17.9707 26.3699C18.0204 26.3699 18.0576 26.3699 18.0825 26.3699C18.1073 26.3699 18.1445 26.3699 18.1942 26.3699L22.3651 35.2853C22.4893 35.4608 22.6382 35.6238 22.812 35.7743C23.0106 35.9248 23.2217 36 23.4451 36C23.4699 36 23.5072 36 23.5568 36C23.7555 36 23.9541 35.9498 24.1527 35.8495C24.3513 35.7241 24.5127 35.5737 24.6368 35.3981L27.0202 31.2978L31.6753 32.0125C31.9236 32.0878 32.1346 32.0752 32.3084 31.9749C32.4822 31.8746 32.6311 31.7367 32.7553 31.5611C32.8794 31.3605 32.9539 31.1599 32.9787 30.9592C33.0284 30.7335 32.9911 30.5329 32.867 30.3574L28.4726 21.0658C29.2919 19.9875 29.925 18.7837 30.3719 17.4545C30.8436 16.1003 31.0794 14.6959 31.0794 13.2414C31.0794 11.4107 30.7319 9.69279 30.0367 8.08777C29.3664 6.48276 28.4354 5.07837 27.2437 3.87461C26.052 2.67085 24.6616 1.73041 23.0727 1.05329C21.4838 0.351097 19.7831 0 17.9707 0C16.1584 0 14.4453 0.338558 12.8315 1.01567C11.2426 1.69279 9.85228 2.62069 8.66058 3.79937C7.4937 4.97806 6.56269 6.36991 5.86753 7.97492C5.1972 9.57994 4.86203 11.2978 4.86203 13.1285C4.86203 14.6332 5.08548 16.0502 5.53236 17.3793C6.00408 18.6834 6.64958 19.8746 7.46888 20.953L3.07448 30.2069C3.02483 30.4577 3 30.6959 3 30.9216C3 31.1473 3.06207 31.3605 3.1862 31.5611ZM26.4244 28.7774C26.2009 28.7273 25.9775 28.7523 25.754 28.8527C25.5306 28.953 25.3568 29.1285 25.2327 29.3793L23.5568 32.2759L20.7265 26.1442C21.8438 25.8934 22.9237 25.5047 23.9665 24.9781C25.0092 24.4514 25.9527 23.7868 26.7968 22.9843L29.776 29.3793L26.4244 28.7774ZM17.9707 2.29467C19.4604 2.29467 20.8507 2.58307 22.1417 3.15987C23.4575 3.7116 24.5996 4.47649 25.5678 5.45455C26.5361 6.4326 27.2933 7.58621 27.8395 8.91536C28.4105 10.2194 28.696 11.6238 28.696 13.1285C28.696 14.3824 28.485 15.5862 28.063 16.7398C27.6657 17.8683 27.0823 18.9091 26.3126 19.8621C26.263 19.9373 26.2009 20 26.1264 20.0502C26.0768 20.1003 26.0147 20.163 25.9402 20.2382C25.0465 21.2665 23.9913 22.094 22.7748 22.721C21.5583 23.348 20.23 23.7241 18.79 23.8495C18.79 23.8495 18.7528 23.8495 18.6783 23.8495C18.5542 23.8495 18.4176 23.8495 18.2687 23.8495C18.1197 23.8495 17.9832 23.8495 17.859 23.8495C17.7349 23.8495 17.6107 23.8495 17.4866 23.8495C17.3625 23.8495 17.2508 23.8495 17.1514 23.8495C17.077 23.8495 17.0149 23.8495 16.9652 23.8495C16.9156 23.8495 16.8908 23.8495 16.8908 23.8495C15.5253 23.7241 14.2591 23.348 13.0922 22.721C11.9253 22.094 10.895 21.2665 10.0012 20.2382C9.92676 20.1129 9.85228 20 9.7778 19.8997C9.72814 19.7743 9.64125 19.6865 9.51711 19.6364C8.79713 18.7837 8.23852 17.8056 7.84128 16.7022C7.44405 15.5737 7.24543 14.3824 7.24543 13.1285C7.24543 11.6238 7.51853 10.2194 8.06473 8.91536C8.63575 7.58621 9.40539 6.4326 10.3736 5.45455C11.3419 4.47649 12.4715 3.7116 13.7625 3.15987C15.0784 2.58307 16.4811 2.29467 17.9707 2.29467ZM9.14471 22.8715C9.98883 23.6489 10.9323 24.3135 11.975 24.8652C13.0177 25.3918 14.0977 25.768 15.2149 25.9937L12.3846 32.163L10.7088 29.2665C10.5847 29.0909 10.4109 28.953 10.1874 28.8527C9.964 28.7273 9.74056 28.6646 9.51711 28.6646L6.27718 29.1536L9.14471 22.8715Z" fill="#999999"/>
</svg>