<svg width="36" height="36" viewBox="0 0 36 36" fill="none" xmlns="http://www.w3.org/2000/svg">
<path d="M7.66333 36H28.2297C29.0735 36 29.8704 35.8125 30.6204 35.4375C31.3938 35.0859 32.0618 34.5938 32.6243 33.9609C33.1868 33.3047 33.5618 32.5781 33.7493 31.7812C33.9368 30.9609 33.9719 30.1523 33.8547 29.3555L30.3743 11.0391C30.3274 10.7578 30.1985 10.5352 29.9875 10.3711C29.7766 10.207 29.5305 10.125 29.2493 10.125H24.7493V6.75C24.7493 4.89844 24.0813 3.31641 22.7454 2.00391C21.4329 0.667969 19.8508 0 17.9993 0C16.1477 0 14.554 0.667969 13.218 2.00391C11.9055 3.31641 11.2493 4.89844 11.2493 6.75V10.125H6.74927C6.46802 10.125 6.22192 10.207 6.01099 10.3711C5.80005 10.5352 5.67114 10.7578 5.62427 11.0391L2.1438 29.3555C1.97974 30.1523 2.00317 30.9609 2.21411 31.7812C2.42505 32.5781 2.81177 33.3047 3.37427 33.9609C3.88989 34.5938 4.52271 35.0859 5.27271 35.4375C6.02271 35.8125 6.81958 36 7.66333 36ZM13.4993 6.75C13.4993 5.50781 13.9329 4.45312 14.8 3.58594C15.6907 2.69531 16.7571 2.25 17.9993 2.25C19.2415 2.25 20.2961 2.69531 21.1633 3.58594C22.054 4.45312 22.4993 5.50781 22.4993 6.75V10.125H13.4993V6.75ZM4.3938 29.707L7.66333 12.375H28.2297L31.4993 29.707C31.6165 30.1992 31.6047 30.6914 31.4641 31.1836C31.3235 31.6758 31.1125 32.1211 30.8313 32.5195C30.4797 32.918 30.0813 33.2227 29.636 33.4336C29.2141 33.6445 28.7454 33.75 28.2297 33.75H7.66333C7.14771 33.75 6.66724 33.6445 6.22192 33.4336C5.77661 33.2227 5.38989 32.918 5.06177 32.5195C4.78052 32.1211 4.56958 31.6758 4.42896 31.1836C4.28833 30.6914 4.27661 30.1992 4.3938 29.707Z" fill="#999999"/>
</svg>