<svg width="36" height="36" viewBox="0 0 36 36" fill="none" xmlns="http://www.w3.org/2000/svg">
<path d="M14.625 19.6875C14.625 20.1562 14.4609 20.5547 14.1328 20.8828C13.8047 21.2109 13.4062 21.375 12.9375 21.375C12.4688 21.375 12.0703 21.2109 11.7422 20.8828C11.4141 20.5547 11.25 20.1562 11.25 19.6875C11.25 19.2188 11.4141 18.8203 11.7422 18.4922C12.0703 18.1641 12.4688 18 12.9375 18C13.4062 18 13.8047 18.1641 14.1328 18.4922C14.4609 18.8203 14.625 19.2188 14.625 19.6875ZM24.75 19.6875C24.75 20.1562 24.5859 20.5547 24.2578 20.8828C23.9297 21.2109 23.5312 21.375 23.0625 21.375C22.5938 21.375 22.1953 21.2109 21.8672 20.8828C21.5391 20.5547 21.375 20.1562 21.375 19.6875C21.375 19.2188 21.5391 18.8203 21.8672 18.4922C22.1953 18.1641 22.5938 18 23.0625 18C23.5312 18 23.9297 18.1641 24.2578 18.4922C24.5859 18.8203 24.75 19.2188 24.75 19.6875ZM18 0C15.5156 0 13.1836 0.480469 11.0039 1.44141C8.82422 2.37891 6.91406 3.66797 5.27344 5.30859C3.65625 6.92578 2.36719 8.82422 1.40625 11.0039C0.46875 13.1836 0 15.5156 0 18V30.832L0.316406 31.1836C0.363281 31.2305 0.714844 31.5117 1.37109 32.0273C2.05078 32.5195 3.08203 33.0703 4.46484 33.6797C5.87109 34.2656 7.6875 34.793 9.91406 35.2617C12.1406 35.7539 14.8359 36 18 36C21.1641 36 23.8594 35.7539 26.0859 35.2617C28.3125 34.793 30.1172 34.2656 31.5 33.6797C32.9062 33.0703 33.9375 32.5195 34.5938 32.0273C35.2734 31.5117 35.6367 31.2305 35.6836 31.1836L36 30.832V18C36 15.5156 35.5195 13.1836 34.5586 11.0039C33.6211 8.82422 32.332 6.92578 30.6914 5.30859C29.0742 3.66797 27.1758 2.37891 24.9961 1.44141C22.8164 0.480469 20.4844 0 18 0ZM33.75 29.8477C33.4453 30.082 32.918 30.4219 32.168 30.8672C31.4414 31.2891 30.4336 31.7227 29.1445 32.168C27.8789 32.5898 26.3203 32.9648 24.4688 33.293C22.6406 33.5977 20.4844 33.75 18 33.75C15.5391 33.75 13.3828 33.5977 11.5312 33.293C9.70312 32.9648 8.14453 32.5898 6.85547 32.168C5.58984 31.7227 4.58203 31.2891 3.83203 30.8672C3.08203 30.4219 2.55469 30.082 2.25 29.8477V18C2.25 15.8203 2.66016 13.7812 3.48047 11.8828C4.32422 9.96094 5.44922 8.29688 6.85547 6.89062C8.28516 5.46094 9.94922 4.33594 11.8477 3.51562C13.7695 2.67188 15.8203 2.25 18 2.25C20.1797 2.25 22.2188 2.67188 24.1172 3.51562C26.0391 4.33594 27.7031 5.46094 29.1094 6.89062C30.5391 8.29688 31.6641 9.96094 32.4844 11.8828C33.3281 13.7812 33.75 15.8203 33.75 18V29.8477ZM23.9766 5.90625L23.168 5.48438L22.5703 6.22266C21.8203 7.20703 20.9766 8.08594 20.0391 8.85938C19.125 9.60938 18.1289 10.2539 17.0508 10.793C15.9961 11.3086 14.8828 11.707 13.7109 11.9883C12.5391 12.2461 11.3438 12.375 10.125 12.375C9.58594 12.375 9.03516 12.3516 8.47266 12.3047C7.93359 12.2344 7.39453 12.1406 6.85547 12.0234L5.94141 11.8477L5.58984 12.6914C5.23828 13.5352 4.96875 14.4023 4.78125 15.293C4.59375 16.1836 4.5 17.0859 4.5 18C4.5 19.8516 4.85156 21.5977 5.55469 23.2383C6.25781 24.8789 7.21875 26.3203 8.4375 27.5625C9.67969 28.7812 11.1211 29.7422 12.7617 30.4453C14.4023 31.1484 16.1484 31.5 18 31.5C19.8516 31.5 21.5977 31.1484 23.2383 30.4453C24.8789 29.7422 26.3086 28.7812 27.5273 27.5625C28.7695 26.3203 29.7422 24.8789 30.4453 23.2383C31.1484 21.5977 31.5 19.8516 31.5 18C31.5 16.7109 31.3242 15.4688 30.9727 14.2734C30.6211 13.0547 30.1172 11.9297 29.4609 10.8984C28.8281 9.84375 28.043 8.89453 27.1055 8.05078C26.1914 7.20703 25.1484 6.49219 23.9766 5.90625ZM18 29.25C16.4531 29.25 14.9883 28.957 13.6055 28.3711C12.2461 27.7852 11.0508 26.9883 10.0195 25.9805C9.01172 24.9492 8.21484 23.7539 7.62891 22.3945C7.04297 21.0117 6.75 19.5469 6.75 18C6.75 17.3906 6.79688 16.7812 6.89062 16.1719C6.98438 15.5625 7.13672 14.9766 7.34766 14.4141C7.79297 14.4844 8.25 14.543 8.71875 14.5898C9.1875 14.6133 9.65625 14.625 10.125 14.625C11.4375 14.625 12.7266 14.4844 13.9922 14.2031C15.2578 13.9219 16.4648 13.5234 17.6133 13.0078C18.7852 12.4688 19.8867 11.8125 20.918 11.0391C21.9492 10.2422 22.8984 9.35156 23.7656 8.36719C24.6094 8.85938 25.3711 9.45703 26.0508 10.1602C26.7305 10.8398 27.3047 11.6016 27.7734 12.4453C28.2422 13.2656 28.6055 14.1445 28.8633 15.082C29.1211 16.0195 29.25 16.9922 29.25 18C29.25 19.5469 28.957 21.0117 28.3711 22.3945C27.7852 23.7539 26.9766 24.9492 25.9453 25.9805C24.9375 26.9883 23.7422 27.7852 22.3594 28.3711C21 28.957 19.5469 29.25 18 29.25Z" fill="#999999"/>
</svg>