<svg width="36" height="36" viewBox="0 0 36 36" fill="none" xmlns="http://www.w3.org/2000/svg">
<path d="M31.5 16.5H27.3516L17.543 8.83594C17.4258 8.78906 17.3086 8.74219 17.1914 8.69531C17.0977 8.64844 16.9922 8.625 16.875 8.625H14.625C14.3906 8.625 14.1914 8.68359 14.0273 8.80078C13.8633 8.91797 13.7227 9.08203 13.6055 9.29297C13.6055 9.29297 13.2539 9.75 12.5508 10.6641C11.8711 11.5547 10.6875 12 9 12C7.35938 12 6.1875 11.5664 5.48438 10.6992C4.80469 9.83203 4.44141 9.36328 4.39453 9.29297C4.27734 9.08203 4.13672 8.91797 3.97266 8.80078C3.80859 8.68359 3.60938 8.625 3.375 8.625H1.125C0.796875 8.625 0.527344 8.73047 0.316406 8.94141C0.105469 9.15234 0 9.42188 0 9.75V25.5C0 26.4609 0.316406 27.2695 0.949219 27.9258C1.60547 28.5586 2.41406 28.875 3.375 28.875H32.625C33.5859 28.875 34.3828 28.5586 35.0156 27.9258C35.6719 27.2695 36 26.4609 36 25.5V21C36 19.7578 35.5547 18.7031 34.6641 17.8359C33.7969 16.9453 32.7422 16.5 31.5 16.5ZM2.70703 10.875C3.10547 11.4375 3.79688 12.1406 4.78125 12.9844C5.78906 13.8281 7.19531 14.25 9 14.25C10.8047 14.25 12.1992 13.8281 13.1836 12.9844C14.1914 12.1406 14.8945 11.4375 15.293 10.875H16.5234L26.332 18.5391C26.4492 18.5859 26.5547 18.6328 26.6484 18.6797C26.7656 18.7266 26.8828 18.75 27 18.75H31.5C32.1094 18.75 32.6367 18.9727 33.082 19.418C33.5273 19.8633 33.75 20.3906 33.75 21V22.125H2.25V10.875H2.70703ZM32.625 26.625H3.375C3.04688 26.625 2.77734 26.5195 2.56641 26.3086C2.35547 26.0977 2.25 25.8281 2.25 25.5V24.375H33.75V25.5C33.75 25.8281 33.6445 26.0977 33.4336 26.3086C33.2227 26.5195 32.9531 26.625 32.625 26.625Z" fill="#999999"/>
</svg>