<svg width="36" height="36" viewBox="0 0 36 36" fill="none" xmlns="http://www.w3.org/2000/svg">
<path d="M22.1197 1.66503C21.8745 1.53301 21.617 1.4802 21.3473 1.5066C21.1021 1.5066 20.8936 1.59902 20.722 1.78386L1.88885 20.7957C1.69268 21.0597 1.57006 21.3238 1.52102 21.5878C1.47197 21.8255 1.50876 22.0763 1.63137 22.3404C1.70494 22.5252 1.83981 22.6968 2.03599 22.8553C2.23217 23.0137 2.45287 23.0929 2.69809 23.0929H15.4252L13.2917 32.9949C13.2427 33.2325 13.2672 33.4966 13.3653 33.7871C13.4634 34.0511 13.635 34.2491 13.8803 34.3812C14.0029 34.434 14.101 34.4736 14.1745 34.5C14.2481 34.5 14.3462 34.5 14.4688 34.5C14.5914 34.5 14.7263 34.4736 14.8734 34.4208C15.0451 34.3416 15.1799 34.2359 15.278 34.1039L34.1111 15.0921C34.3073 14.9073 34.4299 14.696 34.479 14.4584C34.528 14.2207 34.4912 13.9699 34.3686 13.7058C34.2951 13.521 34.1602 13.3494 33.964 13.1909C33.7678 13.0325 33.5471 12.9533 33.3019 12.9533H20.5748L22.7083 3.05131C22.7573 2.81366 22.7328 2.56281 22.6347 2.29876C22.5366 2.0083 22.365 1.79706 22.1197 1.66503ZM30.3592 15.4882L16.4551 29.549L18 22.2215C18.049 22.0103 18.049 21.8255 18 21.667C17.951 21.4822 17.8774 21.3238 17.7793 21.1917C17.6567 20.9277 17.5096 20.7561 17.3379 20.6768C17.1662 20.5976 16.9946 20.558 16.8229 20.558H5.64076L19.5449 6.4972L18 13.9831C17.951 14.1679 17.951 14.3528 18 14.5376C18.049 14.696 18.1226 14.8413 18.2207 14.9733C18.3433 15.1053 18.4904 15.2241 18.6621 15.3298C18.8338 15.4354 19.0054 15.4882 19.1771 15.4882H30.3592Z" fill="#999999"/>
</svg>