<svg width="36" height="36" viewBox="0 0 36 36" fill="none" xmlns="http://www.w3.org/2000/svg">
<path d="M34.875 6.75H28.6172C28.8047 6.42188 28.957 6.07031 29.0742 5.69531C29.1914 5.32031 29.25 4.92188 29.25 4.5C29.25 3.25781 28.8047 2.20312 27.9141 1.33594C27.0469 0.445312 25.9922 0 24.75 0C22.9922 0 21.5625 0.539062 20.4609 1.61719C19.3828 2.69531 18.5625 3.77344 18 4.85156C17.4375 3.77344 16.6055 2.69531 15.5039 1.61719C14.4258 0.539062 13.0078 0 11.25 0C10.0078 0 8.94141 0.445312 8.05078 1.33594C7.18359 2.20312 6.75 3.25781 6.75 4.5C6.75 4.92188 6.80859 5.32031 6.92578 5.69531C7.04297 6.07031 7.19531 6.42188 7.38281 6.75H1.125C0.820312 6.75 0.550781 6.86719 0.316406 7.10156C0.105469 7.3125 0 7.57031 0 7.875V13.5C0 13.8047 0.105469 14.0742 0.316406 14.3086C0.550781 14.5195 0.820312 14.625 1.125 14.625H3.375V34.875C3.375 35.1797 3.48047 35.4375 3.69141 35.6484C3.92578 35.8828 4.19531 36 4.5 36H31.5C31.8047 36 32.0625 35.8828 32.2734 35.6484C32.5078 35.4375 32.625 35.1797 32.625 34.875V14.625H34.875C35.1797 14.625 35.4375 14.5195 35.6484 14.3086C35.8828 14.0742 36 13.8047 36 13.5V7.875C36 7.57031 35.8828 7.3125 35.6484 7.10156C35.4375 6.86719 35.1797 6.75 34.875 6.75ZM24.75 2.25C25.3594 2.25 25.8867 2.47266 26.332 2.91797C26.7773 3.36328 27 3.89062 27 4.5C27 5.10938 26.7773 5.63672 26.332 6.08203C25.8867 6.52734 25.3594 6.75 24.75 6.75H19.582C19.957 5.88281 20.5547 4.92188 21.375 3.86719C22.2188 2.78906 23.3438 2.25 24.75 2.25ZM20.25 9V12.375H15.75V9H20.25ZM9 4.5C9 3.89062 9.22266 3.36328 9.66797 2.91797C10.1133 2.47266 10.6406 2.25 11.25 2.25C12.6328 2.25 13.7461 2.78906 14.5898 3.86719C15.4336 4.92188 16.043 5.88281 16.418 6.75H11.25C10.6406 6.75 10.1133 6.52734 9.66797 6.08203C9.22266 5.63672 9 5.10938 9 4.5ZM2.25 9H13.5V12.375H2.25V9ZM5.625 14.625H13.5V33.75H5.625V14.625ZM15.75 33.75V14.625H20.25V33.75H15.75ZM30.375 33.75H22.5V14.625H30.375V33.75ZM33.75 12.375H22.5V9H33.75V12.375Z" fill="#999999"/>
</svg>