<svg width="36" height="36" viewBox="0 0 36 36" fill="none" xmlns="http://www.w3.org/2000/svg">
<path d="M18 0C15.5156 0 13.1836 0.480469 11.0039 1.44141C8.82422 2.37891 6.91406 3.66797 5.27344 5.30859C3.65625 6.92578 2.36719 8.82422 1.40625 11.0039C0.46875 13.1836 0 15.5156 0 18C0 20.4844 0.46875 22.8164 1.40625 24.9961C2.36719 27.1758 3.65625 29.0859 5.27344 30.7266C6.91406 32.3438 8.82422 33.6211 11.0039 34.5586C13.1836 35.5195 15.5156 36 18 36C20.4844 36 22.8164 35.5195 24.9961 34.5586C27.1758 33.6211 29.0742 32.3438 30.6914 30.7266C32.332 29.0859 33.6211 27.1758 34.5586 24.9961C35.5195 22.8164 36 20.4844 36 18C36 15.5156 35.5195 13.1836 34.5586 11.0039C33.6211 8.82422 32.332 6.92578 30.6914 5.30859C29.0742 3.66797 27.1758 2.37891 24.9961 1.44141C22.8164 0.480469 20.4844 0 18 0ZM18 2.25C19.9219 2.25 21.7383 2.57812 23.4492 3.23438C25.1836 3.89062 26.7305 4.79297 28.0898 5.94141C29.4492 7.06641 30.5977 8.41406 31.5352 9.98438C32.4727 11.5312 33.1172 13.2188 33.4688 15.0469C32.5078 14.7656 31.2422 14.1445 29.6719 13.1836C28.1016 12.1992 26.5781 10.5352 25.1016 8.19141L24.3633 7.06641L23.3789 7.94531C22.207 9.02344 21.0469 9.85547 19.8984 10.4414C18.75 11.0039 17.625 11.4141 16.5234 11.6719C15.4219 11.9297 14.332 12.082 13.2539 12.1289C12.1992 12.1758 11.1797 12.1992 10.1953 12.1992C8.90625 12.1992 7.64062 12.2461 6.39844 12.3398C5.17969 12.4336 4.03125 12.7734 2.95312 13.3594C3.44531 11.7656 4.17188 10.2891 5.13281 8.92969C6.11719 7.57031 7.26562 6.39844 8.57812 5.41406C9.89062 4.40625 11.3438 3.63281 12.9375 3.09375C14.5547 2.53125 16.2422 2.25 18 2.25ZM18 33.75C15.8203 33.75 13.7695 33.3398 11.8477 32.5195C9.94922 31.6758 8.28516 30.5508 6.85547 29.1445C5.44922 27.7148 4.32422 26.0508 3.48047 24.1523C2.66016 22.2305 2.25 20.1797 2.25 18C2.25 17.7891 2.25 17.5898 2.25 17.4023C2.27344 17.1914 2.29688 16.9922 2.32031 16.8047C3.28125 15.6328 4.39453 14.9531 5.66016 14.7656C6.94922 14.5547 8.46094 14.4492 10.1953 14.4492C11.1797 14.4492 12.2109 14.4258 13.2891 14.3789C14.3672 14.332 15.4805 14.1914 16.6289 13.957C17.8008 13.6992 18.9961 13.3008 20.2148 12.7617C21.4336 12.2227 22.6641 11.4609 23.9062 10.4766C24.8203 11.7422 25.7461 12.7969 26.6836 13.6406C27.6445 14.4844 28.5703 15.1758 29.4609 15.7148C30.3516 16.2305 31.1602 16.6172 31.8867 16.875C32.6367 17.1328 33.2461 17.3203 33.7148 17.4375C33.7148 17.5312 33.7148 17.625 33.7148 17.7188C33.7383 17.8125 33.75 17.9062 33.75 18C33.75 20.1797 33.3281 22.2305 32.4844 24.1523C31.6641 26.0508 30.5391 27.7148 29.1094 29.1445C27.7031 30.5508 26.0391 31.6758 24.1172 32.5195C22.2188 33.3398 20.1797 33.75 18 33.75ZM12.375 21.375C12.375 22.0078 12.1523 22.5469 11.707 22.9922C11.2852 23.4141 10.7578 23.625 10.125 23.625C9.49219 23.625 8.95312 23.4141 8.50781 22.9922C8.08594 22.5469 7.875 22.0078 7.875 21.375C7.875 20.7422 8.08594 20.2148 8.50781 19.793C8.95312 19.3477 9.49219 19.125 10.125 19.125C10.7578 19.125 11.2852 19.3477 11.707 19.793C12.1523 20.2148 12.375 20.7422 12.375 21.375ZM28.125 21.375C28.125 22.0078 27.9023 22.5469 27.457 22.9922C27.0352 23.4141 26.5078 23.625 25.875 23.625C25.2422 23.625 24.7031 23.4141 24.2578 22.9922C23.8359 22.5469 23.625 22.0078 23.625 21.375C23.625 20.7422 23.8359 20.2148 24.2578 19.793C24.7031 19.3477 25.2422 19.125 25.875 19.125C26.5078 19.125 27.0352 19.3477 27.457 19.793C27.9023 20.2148 28.125 20.7422 28.125 21.375Z" fill="#999999"/>
</svg>