<svg width="36" height="36" viewBox="0 0 36 36" fill="none" xmlns="http://www.w3.org/2000/svg">
<path d="M18 0C15.5 0 13.15 0.475 10.95 1.425C8.775 2.35 6.875 3.625 5.25 5.25C3.625 6.875 2.3375 8.7875 1.3875 10.9875C0.4625 13.1625 0 15.5 0 18C0 20.5 0.4625 22.8375 1.3875 25.0125C2.3375 27.1875 3.625 29.1 5.25 30.75C6.875 32.375 8.775 33.6625 10.95 34.6125C13.15 35.5375 15.5 36 18 36C20.5 36 22.8375 35.5375 25.0125 34.6125C27.1875 33.6625 29.0875 32.375 30.7125 30.75C32.3625 29.125 33.65 27.225 34.575 25.05C35.525 22.85 36 20.5 36 18C36 15.5 35.525 13.1625 34.575 10.9875C33.65 8.8125 32.375 6.9125 30.75 5.2875C29.125 3.6375 27.2125 2.35 25.0125 1.425C22.8375 0.475 20.5 0 18 0ZM18 33.6C15.85 33.6 13.825 33.2 11.925 32.4C10.025 31.575 8.3625 30.4625 6.9375 29.0625C5.5375 27.6375 4.425 25.975 3.6 24.075C2.8 22.175 2.4 20.15 2.4 18C2.4 15.85 2.8 13.825 3.6 11.925C4.425 10.025 5.5375 8.375 6.9375 6.975C8.3625 5.55 10.025 4.4375 11.925 3.6375C13.825 2.8125 15.85 2.4 18 2.4C20.15 2.4 22.175 2.8125 24.075 3.6375C25.975 4.4375 27.625 5.55 29.025 6.975C30.45 8.375 31.5625 10.025 32.3625 11.925C33.1875 13.825 33.6 15.85 33.6 18C33.6 20.15 33.1875 22.175 32.3625 24.075C31.5625 25.975 30.45 27.6375 29.025 29.0625C27.625 30.4625 25.975 31.575 24.075 32.4C22.175 33.2 20.15 33.6 18 33.6ZM16.8 12.6C16.8 11.45 16.3875 10.4625 15.5625 9.6375C14.7375 8.8125 13.75 8.4 12.6 8.4C11.45 8.4 10.4625 8.8125 9.6375 9.6375C8.8125 10.4625 8.4 11.45 8.4 12.6C8.4 13.75 8.8125 14.7375 9.6375 15.5625C10.4625 16.3875 11.45 16.8 12.6 16.8C13.75 16.8 14.7375 16.3875 15.5625 15.5625C16.3875 14.7375 16.8 13.75 16.8 12.6ZM10.8 12.6C10.8 12.125 10.975 11.7125 11.325 11.3625C11.7 10.9875 12.125 10.8 12.6 10.8C13.075 10.8 13.4875 10.9875 13.8375 11.3625C14.2125 11.7125 14.4 12.125 14.4 12.6C14.4 13.075 14.2125 13.5 13.8375 13.875C13.4875 14.225 13.075 14.4 12.6 14.4C12.125 14.4 11.7 14.225 11.325 13.875C10.975 13.5 10.8 13.075 10.8 12.6ZM23.4 19.2C22.25 19.2 21.2625 19.6125 20.4375 20.4375C19.6125 21.2625 19.2 22.25 19.2 23.4C19.2 24.55 19.6125 25.5375 20.4375 26.3625C21.2625 27.1875 22.25 27.6 23.4 27.6C24.55 27.6 25.5375 27.1875 26.3625 26.3625C27.1875 25.5375 27.6 24.55 27.6 23.4C27.6 22.25 27.1875 21.2625 26.3625 20.4375C25.5375 19.6125 24.55 19.2 23.4 19.2ZM23.4 25.2C22.925 25.2 22.5 25.025 22.125 24.675C21.775 24.3 21.6 23.875 21.6 23.4C21.6 22.925 21.775 22.5125 22.125 22.1625C22.5 21.7875 22.925 21.6 23.4 21.6C23.875 21.6 24.2875 21.7875 24.6375 22.1625C25.0125 22.5125 25.2 22.925 25.2 23.4C25.2 23.875 25.0125 24.3 24.6375 24.675C24.2875 25.025 23.875 25.2 23.4 25.2ZM24.825 11.175C24.6 10.925 24.325 10.8 24 10.8C23.675 10.8 23.4 10.925 23.175 11.175L11.175 23.175C10.925 23.4 10.8 23.675 10.8 24C10.8 24.325 10.925 24.6 11.175 24.825C11.275 24.95 11.4 25.05 11.55 25.125C11.725 25.175 11.875 25.2 12 25.2C12.125 25.2 12.2625 25.175 12.4125 25.125C12.5875 25.05 12.725 24.95 12.825 24.825L24.825 12.825C25.075 12.6 25.2 12.325 25.2 12C25.2 11.675 25.075 11.4 24.825 11.175Z" fill="#999999"/>
</svg>