<svg width="40" height="30" viewBox="0 0 40 30" fill="none" xmlns="http://www.w3.org/2000/svg">
<path d="M10.611 26.25C10.611 27.2852 10.9714 28.1641 11.6923 28.8867C12.4327 29.6289 13.3191 30 14.3517 30C15.3843 30 16.261 29.6289 16.9819 28.8867C17.7222 28.1641 18.0924 27.2852 18.0924 26.25C18.0924 25.2148 17.7222 24.3359 16.9819 23.6133C16.261 22.8711 15.3843 22.5 14.3517 22.5C13.3191 22.5 12.4327 22.8711 11.6923 23.6133C10.9714 24.3359 10.611 25.2148 10.611 26.25ZM16.222 26.25C16.222 26.7578 16.0369 27.1973 15.6668 27.5684C15.2966 27.9395 14.8582 28.125 14.3517 28.125C13.8451 28.125 13.4068 27.9395 13.0366 27.5684C12.6664 27.1973 12.4814 26.7578 12.4814 26.25C12.4814 25.7422 12.6664 25.3027 13.0366 24.9316C13.4068 24.5605 13.8451 24.375 14.3517 24.375C14.8582 24.375 15.2966 24.5605 15.6668 24.9316C16.0369 25.3027 16.222 25.7422 16.222 26.25ZM30.2496 22.5C29.217 22.5 28.3305 22.8711 27.5902 23.6133C26.8693 24.3359 26.5089 25.2148 26.5089 26.25C26.5089 27.2852 26.8693 28.1641 27.5902 28.8867C28.3305 29.6289 29.217 30 30.2496 30C31.2822 30 32.1589 29.6289 32.8797 28.8867C33.6201 28.1641 33.9903 27.2852 33.9903 26.25C33.9903 25.2148 33.6201 24.3359 32.8797 23.6133C32.1589 22.8711 31.2822 22.5 30.2496 22.5ZM30.2496 28.125C29.743 28.125 29.3047 27.9395 28.9345 27.5684C28.5643 27.1973 28.3792 26.7578 28.3792 26.25C28.3792 25.7422 28.5643 25.3027 28.9345 24.9316C29.3047 24.5605 29.743 24.375 30.2496 24.375C30.7561 24.375 31.1945 24.5605 31.5647 24.9316C31.9348 25.3027 32.1199 25.7422 32.1199 26.25C32.1199 26.7578 31.9348 27.1973 31.5647 27.5684C31.1945 27.9395 30.7561 28.125 30.2496 28.125ZM5.93517 1.875H8.85757L11.5462 19.834C11.5852 20.0488 11.6923 20.2344 11.8677 20.3906C12.043 20.5469 12.2476 20.625 12.4814 20.625H31.1847C31.4185 20.625 31.6231 20.5469 31.7985 20.3906C31.9738 20.2344 32.081 20.0391 32.1199 19.8047L33.9903 5.74219C34.0097 5.60547 34 5.47852 33.961 5.36133C33.9221 5.22461 33.8539 5.10742 33.7565 5.00977C33.6785 4.91211 33.5714 4.83398 33.435 4.77539C33.3181 4.7168 33.1915 4.6875 33.0551 4.6875H11.1955L10.611 0.791016C10.5721 0.576172 10.4649 0.390625 10.2896 0.234375C10.1142 0.078125 9.90964 0 9.67585 0H5.93517C5.68189 0 5.45784 0.0976562 5.26302 0.292969C5.08767 0.46875 5 0.683594 5 0.9375C5 1.19141 5.08767 1.41602 5.26302 1.61133C5.45784 1.78711 5.68189 1.875 5.93517 1.875ZM31.9738 6.5625L30.3665 18.75H13.2996L11.4585 6.5625H31.9738Z" fill="#417DFB"/>
</svg>
