<svg width="40" height="30" viewBox="0 0 40 30" fill="none" xmlns="http://www.w3.org/2000/svg">
<path d="M19.8027 3.63457C19.7624 3.69584 19.7119 3.75711 19.6514 3.81838C19.611 3.85923 19.5605 3.91028 19.5 3.97155C19.4395 3.91028 19.3789 3.85923 19.3184 3.81838C19.278 3.75711 19.2376 3.69584 19.1973 3.63457C18.3294 2.75638 17.3405 2.10284 16.2305 1.67396C15.1406 1.22465 14.0205 1 12.8701 1C11.7399 1 10.6299 1.22465 9.54004 1.67396C8.4502 2.10284 7.47135 2.75638 6.60352 3.63457C5.75586 4.49234 5.11003 5.47265 4.66602 6.57549C4.22201 7.65791 4 8.8016 4 10.0066C4 11.2115 4.22201 12.3654 4.66602 13.4683C5.11003 14.5507 5.75586 15.5208 6.60352 16.3786L18.8037 28.7243C18.9046 28.806 19.0156 28.8673 19.1367 28.9081C19.2578 28.9694 19.3789 29 19.5 29C19.6211 29 19.7422 28.9694 19.8633 28.9081C19.9844 28.8673 20.0954 28.806 20.1963 28.7243L32.3965 16.3786C33.2441 15.5208 33.89 14.5507 34.334 13.4683C34.778 12.3654 35 11.2115 35 10.0066C35 8.8016 34.778 7.65791 34.334 6.57549C33.89 5.47265 33.2441 4.49234 32.3965 3.63457C31.5286 2.75638 30.5498 2.10284 29.46 1.67396C28.3701 1.22465 27.25 1 26.0996 1C24.9694 1 23.8493 1.22465 22.7393 1.67396C21.6494 2.10284 20.6706 2.75638 19.8027 3.63457ZM31.0342 14.9694L19.5 26.6411L7.96582 14.9694C7.31999 14.3158 6.81543 13.5602 6.45215 12.7024C6.10905 11.8446 5.9375 10.946 5.9375 10.0066C5.9375 9.0671 6.10905 8.16849 6.45215 7.31072C6.81543 6.45295 7.31999 5.68709 7.96582 5.01313C8.65202 4.33917 9.41895 3.82859 10.2666 3.4814C11.1344 3.13421 12.0124 2.96061 12.9004 2.96061C13.7884 2.96061 14.6562 3.13421 15.5039 3.4814C16.3717 3.82859 17.1387 4.33917 17.8047 5.01313C17.9661 5.17651 18.1175 5.35011 18.2588 5.53392C18.4202 5.71772 18.5615 5.91174 18.6826 6.11597C18.8643 6.38147 19.1367 6.51422 19.5 6.51422C19.8633 6.51422 20.1357 6.38147 20.3174 6.11597C20.4385 5.91174 20.5697 5.71772 20.7109 5.53392C20.8724 5.35011 21.0339 5.17651 21.1953 5.01313C21.8613 4.33917 22.6182 3.82859 23.4658 3.4814C24.3337 3.13421 25.2116 2.96061 26.0996 2.96061C26.9876 2.96061 27.8555 3.13421 28.7031 3.4814C29.571 3.82859 30.348 4.33917 31.0342 5.01313C31.68 5.68709 32.1745 6.45295 32.5176 7.31072C32.8809 8.16849 33.0625 9.0671 33.0625 10.0066C33.0625 10.946 32.8809 11.8446 32.5176 12.7024C32.1745 13.5602 31.68 14.3158 31.0342 14.9694Z" fill="#417DFB"/>
</svg>
